<svg width="285" height="46" viewBox="0 0 285 46" xmlns="http://www.w3.org/2000/svg"><title>FT-logo</title><g fill-rule="nonzero" fill="none"><g fill="#1476A1"><path d="M54.553 12.986h11.603v2.31h-8.87v5.977h8.005v2.31h-8.005v9.687h-2.732V12.985M68.68 18.053h2.49V33.27h-2.49V18.054zm0-5.924h2.49v3.165h-2.49V12.13zM77.568 13.733v4.32h5.125v1.943h-5.125v8.26c0 1.242.167 2.04.5 2.392.343.354 1.033.53 2.07.53h2.556v2.093h-2.556c-1.92 0-3.246-.357-3.977-1.073-.73-.724-1.094-2.038-1.094-3.94v-8.26H73.24v-1.944h1.826v-4.32h2.502zM96.977 24.086v9.185H94.49v-9.103c0-1.44-.28-2.518-.84-3.233-.558-.716-1.397-1.074-2.515-1.074-1.343 0-2.403.43-3.178 1.29-.775.862-1.163 2.035-1.163 3.52v8.6h-2.502V18.053h2.502v2.364c.595-.914 1.294-1.598 2.096-2.05.812-.454 1.745-.68 2.8-.68 1.74 0 3.056.543 3.95 1.63.89 1.078 1.338 2.667 1.338 4.77zM113.765 25.037v1.223h-11.442c.11 1.72.622 3.034 1.542 3.94.93.897 2.218 1.345 3.868 1.345.956 0 1.88-.118 2.772-.353.902-.236 1.795-.59 2.678-1.06v2.364c-.892.38-1.808.67-2.745.87-.938.2-1.89.3-2.854.3-2.416 0-4.332-.708-5.747-2.12-1.407-1.414-2.11-3.325-2.11-5.734 0-2.49.667-4.466 2-5.924 1.345-1.468 3.152-2.2 5.425-2.2 2.037 0 3.647.66 4.828 1.982 1.19 1.314 1.785 3.103 1.785 5.367zm-2.49-.734c-.017-1.367-.4-2.46-1.148-3.274-.74-.816-1.722-1.224-2.948-1.224-1.39 0-2.503.394-3.342 1.182-.83.788-1.307 1.898-1.433 3.33l8.87-.015zM125.782 18.502v2.364c-.704-.363-1.434-.634-2.19-.815-.76-.18-1.543-.27-2.354-.27-1.236 0-2.164.19-2.786.57-.614.38-.92.95-.92 1.71 0 .58.22 1.04.663 1.374.44.326 1.33.638 2.664.937l.85.19c1.768.382 3.02.92 3.76 1.618.75.69 1.123 1.653 1.123 2.894 0 1.413-.56 2.532-1.677 3.356-1.11.824-2.637 1.237-4.585 1.237-.81 0-1.658-.082-2.54-.245-.876-.154-1.8-.39-2.774-.707v-2.58c.92.48 1.826.84 2.72 1.086.89.234 1.775.352 2.65.352 1.17 0 2.073-.2 2.704-.598.63-.407.947-.978.947-1.712 0-.68-.23-1.2-.69-1.562-.45-.362-1.447-.71-2.99-1.046l-.864-.204c-1.542-.326-2.655-.824-3.34-1.495-.686-.68-1.028-1.607-1.028-2.785 0-1.43.504-2.536 1.514-3.315 1.01-.78 2.443-1.168 4.3-1.168.92 0 1.785.067 2.596.203.812.136 1.56.34 2.245.612h.002zM138.053 18.502v2.364c-.703-.363-1.433-.634-2.19-.815-.758-.18-1.542-.27-2.354-.27-1.236 0-2.165.19-2.787.57-.613.38-.92.95-.92 1.71 0 .58.222 1.04.663 1.374.442.326 1.33.638 2.665.937l.853.19c1.767.382 3.02.92 3.76 1.618.748.69 1.122 1.653 1.122 2.894 0 1.413-.56 2.532-1.677 3.356-1.11.824-2.637 1.237-4.585 1.237-.81 0-1.66-.082-2.542-.245-.874-.154-1.798-.39-2.772-.707v-2.58c.92.48 1.826.84 2.718 1.086.893.234 1.777.352 2.65.352 1.173 0 2.075-.2 2.706-.598.63-.407.947-.978.947-1.712 0-.68-.23-1.2-.69-1.562-.452-.362-1.448-.71-2.99-1.046l-.865-.204c-1.542-.326-2.656-.824-3.34-1.495-.686-.68-1.03-1.607-1.03-2.785 0-1.43.506-2.536 1.516-3.315 1.01-.78 2.444-1.168 4.302-1.168.92 0 1.785.067 2.596.203.812.136 1.56.34 2.245.612z"/><path d="M135.48 12.986h17.08v2.31h-7.168V33.27h-2.745V15.296h-7.168v-2.31"/><path d="M160.327 20.39c-.28-.163-.586-.28-.92-.353-.324-.082-.685-.122-1.082-.122-1.406 0-2.488.462-3.246 1.386-.75.915-1.123 2.233-1.123 3.954v8.016h-2.502V18.053h2.502v2.364c.523-.924 1.204-1.607 2.042-2.05.838-.454 1.856-.68 3.056-.68.17 0 .36.013.568.04.207.018.437.05.69.095l.013 2.568zM168.293 25.62c-2.01 0-3.404.232-4.18.694-.774.462-1.162 1.25-1.162 2.364 0 .888.29 1.594.867 2.12.586.516 1.38.774 2.38.774 1.38 0 2.484-.49 3.313-1.467.84-.987 1.258-2.296 1.258-3.927v-.557h-2.475zm4.963-1.03v8.68h-2.488v-2.31c-.568.925-1.276 1.608-2.123 2.052-.848.435-1.885.652-3.11.652-1.552 0-2.787-.434-3.707-1.304-.91-.878-1.365-2.05-1.365-3.52 0-1.71.568-3 1.704-3.87 1.145-.87 2.85-1.305 5.11-1.305h3.49v-.245c0-1.15-.378-2.038-1.135-2.663-.75-.634-1.804-.95-3.165-.95-.866 0-1.71.103-2.53.312-.82.207-1.608.52-2.366.936v-2.31c.912-.353 1.796-.616 2.652-.788.857-.18 1.69-.27 2.502-.27 2.19 0 3.827.57 4.91 1.71 1.08 1.142 1.622 2.872 1.622 5.19zM175.81 18.053h2.49V33.27h-2.49V18.054zm0-5.924h2.49v3.165h-2.49V12.13zM194.827 24.086v9.185h-2.49v-9.103c0-1.44-.278-2.518-.837-3.233-.56-.716-1.398-1.074-2.516-1.074-1.343 0-2.402.43-3.178 1.29-.775.862-1.163 2.035-1.163 3.52v8.6h-2.502V18.053h2.503v2.364c.595-.914 1.294-1.598 2.096-2.05.81-.454 1.744-.68 2.8-.68 1.74 0 3.055.543 3.948 1.63.893 1.078 1.34 2.667 1.34 4.77zM211.618 25.037v1.223h-11.44c.107 1.72.62 3.034 1.54 3.94.93.897 2.218 1.345 3.868 1.345.956 0 1.88-.118 2.773-.353.9-.236 1.793-.59 2.677-1.06v2.364c-.893.38-1.808.67-2.746.87-.936.2-1.888.3-2.852.3-2.417 0-4.332-.708-5.748-2.12-1.406-1.414-2.11-3.325-2.11-5.734 0-2.49.667-4.466 2.002-5.924 1.343-1.468 3.15-2.2 5.423-2.2 2.038 0 3.647.66 4.828 1.982 1.19 1.314 1.785 3.103 1.785 5.367zm-2.488-.734c-.018-1.367-.4-2.46-1.15-3.274-.74-.816-1.722-1.224-2.948-1.224-1.388 0-2.502.394-3.34 1.182-.83.788-1.308 1.898-1.434 3.33l8.872-.015zM222.755 20.39c-.28-.163-.586-.28-.92-.353-.324-.082-.685-.122-1.082-.122-1.406 0-2.488.462-3.245 1.386-.75.915-1.123 2.233-1.123 3.954v8.016h-2.502V18.053h2.502v2.364c.523-.924 1.204-1.607 2.042-2.05.84-.454 1.858-.68 3.057-.68.17 0 .36.013.568.04.207.018.437.05.69.095l.013 2.568zM223.22 29.82h2.853v3.45h-2.853M240.607 18.638v2.336c-.703-.39-1.41-.68-2.123-.87-.703-.198-1.415-.298-2.137-.298-1.613 0-2.867.516-3.76 1.55-.892 1.022-1.338 2.463-1.338 4.32 0 1.856.445 3.3 1.338 4.333.892 1.023 2.146 1.535 3.76 1.535.72 0 1.433-.095 2.136-.286.712-.2 1.42-.494 2.123-.884v2.31c-.694.326-1.415.57-2.163.734-.74.163-1.53.244-2.367.244-2.28 0-4.093-.72-5.437-2.16-1.343-1.44-2.015-3.383-2.015-5.83 0-2.48.676-4.433 2.03-5.855 1.36-1.423 3.222-2.134 5.584-2.134.765 0 1.514.082 2.244.245.73.155 1.438.39 2.123.707zM250.786 19.806c-1.334 0-2.39.525-3.165 1.576-.774 1.042-1.162 2.473-1.162 4.294 0 1.82.383 3.256 1.15 4.307.775 1.04 1.835 1.562 3.178 1.562 1.325 0 2.376-.525 3.15-1.576.776-1.05 1.164-2.483 1.164-4.294 0-1.803-.388-3.23-1.163-4.28-.775-1.06-1.826-1.59-3.15-1.59zm0-2.12c2.164 0 3.863.707 5.1 2.12 1.234 1.413 1.85 3.37 1.85 5.87 0 2.49-.616 4.447-1.85 5.87-1.237 1.412-2.936 2.118-5.1 2.118-2.173 0-3.877-.706-5.112-2.12-1.226-1.42-1.84-3.378-1.84-5.87 0-2.5.614-4.455 1.84-5.868 1.235-1.413 2.94-2.12 5.112-2.12zM273.935 20.974c.622-1.123 1.366-1.952 2.232-2.486.865-.534 1.884-.802 3.056-.802 1.578 0 2.795.557 3.652 1.672.856 1.105 1.285 2.68 1.285 4.728v9.184h-2.502v-9.103c0-1.458-.257-2.54-.77-3.247-.515-.707-1.3-1.06-2.354-1.06-1.29 0-2.31.43-3.057 1.29-.748.86-1.122 2.034-1.122 3.52v8.6h-2.502v-9.103c0-1.467-.257-2.55-.77-3.247-.515-.707-1.308-1.06-2.38-1.06-1.273 0-2.282.435-3.03 1.304-.75.86-1.123 2.03-1.123 3.506v8.6h-2.502V18.053h2.502v2.364c.568-.933 1.25-1.62 2.042-2.065.793-.444 1.736-.666 2.826-.666 1.1 0 2.034.28 2.8.843.775.56 1.348 1.375 1.717 2.444z"/></g><path d="M.165 32.093c0 1.51.854 3.352 2.16 4.095l15.35 8.786c1.307.743 3.393.744 4.702.003l15.172-8.76c1.307-.74 2.095-2.582 2.095-4.09V13.568c0-1.51-.823-3.337-2.142-4.06l-15.29-8.457c-1.318-.723-3.4-.704-4.707.042L2.29 9.933c-1.305.746-2.125 2.59-2.125 4.1v18.06z" fill="#28ACE3"/><path d="M7.362 17.872l-1.444-.82 1.635-2.904 1.445.822M31.38 31.73l-1.446-.822 1.636-2.902 1.444.82M22.956 26.635l-8.245-4.852 1.636-2.902 8.246 4.853-1.636 2.902M11.585 25.16c-.447.794-1.45 1.073-2.24.624l-.028-.017c-.79-.45-1.068-1.456-.62-2.25l5.576-9.896c.447-.793 1.45-1.072 2.24-.623l.028.017c.79.45 1.07 1.456.622 2.25l-5.577 9.896z" fill="#FFF"/><path d="M9.64 22.52c-.448.794-1.45 1.073-2.24.624l-.03-.017c-.79-.45-1.067-1.456-.62-2.25l4.27-7.575c.446-.793 1.45-1.072 2.24-.623l.027.015c.79.45 1.068 1.457.62 2.25L9.64 22.52zM24.498 32.436c-.447.794-1.45 1.072-2.24.623l-.028-.017c-.79-.45-1.068-1.457-.62-2.25l5.576-9.897c.447-.793 1.45-1.072 2.24-.623l.03.016c.788.448 1.066 1.456.62 2.25l-5.578 9.896z" fill="#FFF"/><path d="M27.75 32.754c-.446.794-1.45 1.073-2.24.624l-.027-.017c-.79-.448-1.068-1.455-.62-2.25l4.268-7.574c.448-.793 1.45-1.072 2.24-.623l.03.016c.79.45 1.067 1.456.62 2.25l-4.27 7.574z" fill="#FFF"/></g></svg>